<svg id="Capa_1" enable-background="new 0 0 512 512" height="512" viewBox="0 0 512 512" width="512" xmlns="http://www.w3.org/2000/svg"><path d="m268.676 286.499c-29.016 0-88.37-33.364-91.916-81.508l-6.725-91.318c-4.222-57.332 41.154-106.173 98.641-106.173s102.863 48.841 98.641 106.172l-6.725 91.318c-3.546 48.145-62.899 81.509-91.916 81.509z" fill="#665e66"/><path d="m291.728 10.195c23.723 19.662 38.045 50.133 35.589 83.477l-6.725 91.318c-3.546 48.144-62.899 81.508-91.915 81.508-4.36 0-9.404-.754-14.842-2.197 18.759 14.05 40.504 22.197 54.842 22.197 29.016 0 88.37-33.364 91.915-81.508l6.725-91.318c3.638-49.404-29.555-92.503-75.589-103.477z" fill="#544f57"/><path d="m319.047 299.764v-32.262c-17.658 12.079-37.159 18.996-50.37 18.996-13.212 0-32.712-6.917-50.371-18.996v32.261c18.716 7.628 36.41 11.735 50.371 11.735 13.96.001 31.654-4.106 50.37-11.734z" fill="#fff1dd"/><path d="m268.676 421.669 63.548-102.784c-23.469 11.378-46.344 17.615-63.548 17.615s-40.079-6.237-63.548-17.615z" fill="#a298a5"/><path d="m413.507 310.206h-45.917l-120.126 194.294h225.392v-134.944c0-32.778-26.571-59.35-59.349-59.35z" fill="#665e66"/><path d="m418.091 310.381c9.191 10.452 14.765 24.163 14.765 39.175v93.095c0 23.113-18.737 41.849-41.849 41.849h-131.177l-12.365 20h225.392v-134.944c-.001-31.235-24.13-56.835-54.766-59.175z" fill="#544f57"/><path d="m169.763 310.206h-45.918c-32.778 0-59.35 26.572-59.35 59.35v134.944h152.969l36.212-58.57z" fill="#665e66"/><path d="m64.496 484.5v20h152.968l12.366-20z" fill="#544f57"/><path d="m247.464 504.5 120.125-194.294h-30l-120.125 194.294z" fill="#dd636e"/><path d="m229.829 484.5-12.365 20h30l12.365-20z" fill="#da4a54"/><path d="m268.676 421.669-68.913-111.463h-30l83.913 135.724z" fill="#e28086"/><path d="m200.389 185.446h136.574l5.034-68.351h-146.642z" fill="#fff1dd"/><path d="m320.591 184.99c-.011.152-.023.304-.036.455h16.408l5.033-68.351h-16.405z" fill="#ffe4c1"/><path d="m268.676 336.499c17.204 0 40.079-6.237 63.548-17.615l5.365-8.678h-10.05c-4.691 0-8.493-3.803-8.493-8.493v-1.949c-18.716 7.628-36.41 11.734-50.37 11.734-13.961 0-31.655-4.107-50.371-11.735v1.949c0 4.691-3.802 8.493-8.493 8.493h-10.049l5.365 8.678c23.469 11.379 46.344 17.616 63.548 17.616z" fill="#e28086"/><path d="m84.152 112.441c-2.993-5.185-9.623-6.961-14.808-3.968l-24.774 14.303c-5.185 2.993-6.961 9.623-3.968 14.808l9.58 16.593 43.549-25.143z" fill="#f9f48e"/><path d="m76.302 133.704h50.286v117.952h-50.286z" fill="#e28086" transform="matrix(.866 -.5 .5 .866 -82.749 76.537)"/><path d="m178.63 216.217-95.941 55.392 12.89 22.326 94.04-54.294c-4.96-7.182-8.801-15.028-10.989-23.424z" fill="#f9f48e"/><path d="m196.022 310.206-32.157-55.697-40.085 23.143 18.795 32.554z" fill="#8b818e"/><path d="m319.574 223.155c-3.77 4.977-.134 12.028 5.973 12.028 2.269 0 4.51-1.024 5.984-2.972 6.988-9.226 10.895-18.816 11.608-28.507.59-8.008 5.791-78.659 6.725-91.317.938-12.745-.987-25.091-5.725-36.695-1.564-3.834-5.94-5.675-9.777-4.109-3.835 1.564-5.675 5.942-4.109 9.777 3.645 8.931 5.242 18.421 4.756 28.234h-84.6c-4.142 0-7.5 3.357-7.5 7.5s3.358 7.5 7.5 7.5h83.516c-.782 10.62-3.146 42.723-3.929 53.351h-40.226v-21.36c0-1.098.893-1.99 1.99-1.99h31.19c4.143 0 7.5-3.357 7.5-7.5s-3.357-7.5-7.5-7.5h-31.19c-9.368 0-16.99 7.622-16.99 16.99v21.36h-67.413l-3.929-53.351h11.98c4.142 0 7.5-3.357 7.5-7.5s-3.358-7.5-7.5-7.5h-13.065c-.486-9.813 1.111-19.303 4.756-28.234 1.565-3.835-.275-8.213-4.11-9.778-3.835-1.562-8.213.275-9.778 4.11-4.737 11.605-6.663 23.952-5.724 36.695 2.255 30.657 4.573 62.113 6.724 91.317.714 9.689 4.62 19.28 11.609 28.507 1.475 1.947 3.716 2.972 5.984 2.972 6.11 0 9.741-7.053 5.973-12.028-5.213-6.882-8.108-13.797-8.606-20.552l-.711-9.658h120.43l-.711 9.657c-.497 6.757-3.392 13.671-8.605 20.553z"/><path d="m206.901 147.095c0 4.143 3.358 7.5 7.5 7.5h40.681c4.142 0 7.5-3.357 7.5-7.5s-3.358-7.5-7.5-7.5h-40.681c-4.142 0-7.5 3.357-7.5 7.5z"/><path d="m300.478 220.763c0-4.143-3.357-7.5-7.5-7.5h-48.604c-4.142 0-7.5 3.357-7.5 7.5s3.358 7.5 7.5 7.5h48.604c4.143 0 7.5-3.358 7.5-7.5z"/><path d="m260.785 238.263c-4.142 0-7.5 3.357-7.5 7.5s3.358 7.5 7.5 7.5h15.782c4.143 0 7.5-3.357 7.5-7.5s-3.357-7.5-7.5-7.5z"/><path d="m90.647 108.691c-5.065-8.775-16.276-11.784-25.053-6.713l-24.774 14.303c-8.778 5.068-11.781 16.274-6.713 25.053 14.646 25.368 51.449 89.113 64.806 112.247l-19.974 11.532c-3.587 2.071-4.816 6.658-2.745 10.245l12.89 22.326c2.078 3.599 6.674 4.808 10.245 2.745l21.706-12.532 8.55 14.809h-5.74c-36.861 0-66.85 29.988-66.85 66.85v48.911c0 4.143 3.358 7.5 7.5 7.5s7.5-3.357 7.5-7.5v-48.911c0-28.59 23.26-51.85 51.85-51.85h41.736l79.277 128.224-31.575 51.07h-69.9v-85.334c0-4.143-3.358-7.5-7.5-7.5s-7.5 3.357-7.5 7.5v85.334h-56.387v-43.533c0-4.143-3.358-7.5-7.5-7.5s-7.5 3.357-7.5 7.5v51.033c0 4.143 3.358 7.5 7.5 7.5h408.36c4.143 0 7.5-3.357 7.5-7.5v-134.944c0-36.861-29.988-66.85-66.85-66.85-2.519 0-85.129 0-85.967 0-.548 0-.993-.445-.993-.993 0-65.373 0-.039 0-30.339 9.569-6.981 17.994-15.049 24.533-23.591 2.518-3.289 1.893-7.997-1.396-10.515-3.292-2.52-7.997-1.892-10.515 1.396-18.28 23.879-51.113 40.335-70.493 40.335-15.866 0-37.545-10.976-50.974-21.173-17.323-13.156-31.868-31.747-33.462-53.387l-6.726-91.317c-1.887-25.626 6.705-50.105 24.194-68.931 35.997-38.745 97.537-39.175 133.934.001 17.489 18.824 26.081 43.304 24.194 68.93-7.323 99.431-6.725 92.862-7.388 96.669-.709 4.081 2.024 7.965 6.105 8.674 4.084.706 7.965-2.025 8.674-6.105.834-4.804.27.946 7.567-98.136 2.165-29.398-8.1-58.646-28.164-80.241-20.061-21.597-48.475-33.983-77.953-33.983s-57.892 12.386-77.956 33.982-30.33 50.843-28.165 80.241c7.283 98.888 6.719 93.296 7.591 98.231l-14.694 8.484c-13.367-23.153-50.176-86.908-64.805-112.247zm-42.327 20.58 24.774-14.303c1.603-.928 3.644-.367 4.562 1.223l5.83 10.098c-10.688 6.17-19.871 11.472-30.559 17.643l-5.83-10.098c-.921-1.596-.375-3.64 1.223-4.563zm85.705 151.127c6.767-3.907 19.974-11.531 27.095-15.643l21.912 37.951c-4.347 0-36.047 0-36.126 0zm89.564 29.432c16.645 6.015 32.098 9.169 45.087 9.169 12.99 0 28.443-3.154 45.088-9.168 1.574 2.66 3.896 4.828 6.674 6.211-15.371 6.655-35.154 12.958-51.762 12.958-14.116 0-32.612-4.667-51.762-12.958 2.779-1.384 5.101-3.552 6.675-6.212zm45.087 97.577-44.8-72.461c6.059 2.18 11.984 3.984 17.702 5.393l34.282 55.448zm16.001-25.882-23.397-37.844c5.065.42 9.538.415 14.388.033l16.193 26.192zm16.002-25.881-8.89-14.38c6.932-1.509 14.208-3.628 21.688-6.319zm-117.461-37.938h12.364c128.157 207.282 13.677 22.121 64.277 103.962l-6.182 9.999zm158.552 0h12.365l-110.852 179.294h-12.364c72.37-117.054-9.665 15.631 110.851-179.294zm123.586 51.85v127.444h-56.388v-85.334c0-4.143-3.357-7.5-7.5-7.5s-7.5 3.357-7.5 7.5v85.334h-133.049l110.851-179.294h41.736c28.59 0 51.85 23.26 51.85 51.85zm-153.81-88.668v13.766c-15.973 6.045-31.049 9.345-42.87 9.345-11.82 0-26.896-3.3-42.871-9.346v-13.759c14.997 8.207 30.601 13.105 42.871 13.105 13.96 0 30.395-6.294 42.87-13.111zm-100.74-9.5v30.325c0 .548-.445.993-.993.993h-9.461l-26.242-45.452 13.482-7.784c6.661 8.348 14.647 15.682 23.214 21.918zm-31.657-34.363c-82.166 47.439 5.139-2.967-80.825 46.665l-5.39-9.336c31.605-18.247 50.079-28.913 81.507-47.058 1.331 3.288 2.903 6.536 4.708 9.729zm-67.246 9.056-51.476-89.159c10.688-6.17 19.871-11.472 30.559-17.643l51.476 89.159c-15.65 9.036-15.011 8.667-30.559 17.643z"/><circle cx="86.945" cy="167.565" r="7.5"/><circle cx="101.445" cy="192.68" r="7.5"/><circle cx="115.945" cy="217.795" r="7.5"/></svg>