<svg height="470pt" viewBox="0 -19 470.82259 470" width="470pt" xmlns="http://www.w3.org/2000/svg"><path d="m311.261719 288.289062 63.089843-102.078124 27.21875 16.824218-63.085937 102.078125zm0 0" fill="#428dc5"/><path d="m69.726562 203.027344 27.222657-16.824219 63.085937 102.078125-27.21875 16.824219zm0 0" fill="#b6534f"/><path d="m104.03125 280.410156h256v144h-256zm0 0" fill="#1f6c8c"/><path d="m104.03125 280.410156v144h-80v-64c0-44.179687 35.820312-80 80-80zm0 0" fill="#176177"/><path d="m360.03125 280.410156c44.183594 0 80 35.820313 80 80v64h-80zm0 0" fill="#176177"/><path d="m244.480469 360.410156-44.449219-80h-40l57.777344 104zm0 0" fill="#b9b9b9"/><path d="m367.539062 181.996094 40.832032 25.234375c7.515625 4.648437 9.84375 14.507812 5.199218 22.023437-4.644531 7.515625-14.507812 9.84375-22.023437 5.199219l-40.832031-25.234375c-7.515625-4.644531-9.84375-14.503906-5.199219-22.023438 4.648437-7.515624 14.507813-9.84375 22.023437-5.199218zm0 0" fill="#cdcdcd"/><path d="m401.570312 203.027344-27.203124-16.800782 58.882812-95.269531c4.644531-7.519531 14.503906-9.847656 22.023438-5.203125 7.515624 4.648438 9.839843 14.511719 5.191406 22.027344zm0 0" fill="#9c9c9c"/><g fill="#cdcdcd"><path d="m452.03125 121.363281-27.199219-16.800781 8.417969-13.597656c4.644531-7.519532 14.503906-9.847656 22.023438-5.203125 7.515624 4.648437 9.839843 14.511719 5.191406 22.027343zm0 0"/><path d="m416.183594 127.417969 15.570312-3.671875 3.675782 15.582031-15.574219 3.671875zm0 0"/><path d="m404.800781 145.84375 15.574219-3.671875 3.671875 15.582031-15.574219 3.671875zm0 0"/><path d="m392.1875 166.25 15.574219-3.671875 3.671875 15.582031-15.574219 3.671875zm0 0"/></g><path d="m120.484375 209.167969-40.851563 25.25c-7.519531 4.648437-17.382812 2.320312-22.03125-5.203125-4.648437-7.519532-2.320312-17.382813 5.199219-22.03125l40.851563-25.246094c7.519531-4.648438 17.382812-2.320312 22.03125 5.199219 4.648437 7.519531 2.320312 17.382812-5.199219 22.03125zm0 0" fill="#f7ba61"/><path d="m69.730469 203.027344 27.199219-16.800782-58.863282-95.296874c-4.648437-7.519532-14.515625-9.851563-22.035156-5.199219-7.515625 4.644531-9.84375 14.507812-5.199219 22.023437zm0 0" fill="#cdcdcd"/><path d="m19.234375 121.363281 27.199219-16.800781-8.410156-13.597656c-4.632813-7.511719-14.472657-9.851563-21.992188-5.234375-7.515625 4.644531-9.84375 14.507812-5.199219 22.023437zm0 0" fill="#f7ba61"/><path d="m35.859375 139.320312 3.675781-15.578124 15.574219 3.671874-3.675781 15.582032zm0 0" fill="#9c9c9c"/><path d="m47.25 157.746094 3.671875-15.582032 15.582031 3.671876-3.671875 15.582031zm0 0" fill="#9c9c9c"/><path d="m59.855469 178.164062 3.671875-15.582031 15.582031 3.675781-3.671875 15.578126zm0 0" fill="#9c9c9c"/><path d="m224.03125 424.410156h-40l80-144h40zm0 0" fill="#cdcdcd"/><path d="m264.03125 280.410156-32 24-32-24v-56h64zm0 0" fill="#176177"/><path d="m200.03125 280.410156 32 56 32-56zm0 0" fill="#176177"/><path d="m232.03125 24.410156c48.601562 0 88 39.398438 88 88v48c0 48.601563-39.398438 88-88 88s-88-39.398437-88-88v-48c0-48.601562 39.398438-88 88-88zm0 0" fill="#1f6c8c"/><path d="m320.03125 160.410156h-56l-17.6875-8.847656c-9.007812-4.503906-19.613281-4.503906-28.625 0l-17.6875 8.847656h-56v-64h176zm0 0" fill="#f9d7c0"/><path d="m272.03125 144.410156c-4.417969 0-8-3.582031-8-8v-8c0-4.417968 3.582031-8 8-8s8 3.582032 8 8v8c0 4.417969-3.582031 8-8 8zm0 0" fill="#533222"/><path d="m192.03125 144.410156c-4.417969 0-8-3.582031-8-8v-8c0-4.417968 3.582031-8 8-8s8 3.582032 8 8v8c0 4.417969-3.582031 8-8 8zm0 0" fill="#533222"/><path d="m326.9375 96.410156h-189.808594c-5.023437 0-9.097656-4.070312-9.097656-9.09375-.011719-9.324218 4.644531-18.03125 12.402344-23.199218l11.597656-7.707032c4.621094-27.695312 28.585938-47.996094 56.664062-48h46.671876c28.082031.003906 52.046874 20.304688 56.664062 48l11.601562 7.738282c7.757813 5.167968 12.410157 13.878906 12.398438 23.199218-.015625 5.011719-4.082031 9.0625-9.09375 9.0625zm0 0" fill="#1f6c8c"/><path d="m152.03125 56.410156h40c4.417969 0 8-3.582031 8-8 0-4.417968-3.582031-8-8-8h-34.796875c-2.511719 5.050782-4.261719 10.441406-5.203125 16zm0 0" fill="#176177"/><path d="m240.03125 56.410156h-16c-4.417969 0-8-3.582031-8-8 0-4.417968 3.582031-8 8-8h16c4.417969 0 8 3.582032 8 8 0 4.417969-3.582031 8-8 8zm0 0" fill="#176177"/><path d="m256.03125 128.410156c-3.835938.003906-7.136719-2.71875-7.863281-6.488281-.722657-3.769531 1.332031-7.523437 4.898437-8.941406l40-16c4.101563-1.640625 8.757813.359375 10.398438 4.464843 1.640625 4.101563-.359375 8.757813-4.464844 10.398438l-40 16c-.941406.378906-1.949219.570312-2.96875.566406zm0 0" fill="#8f563b"/><path d="m208.03125 128.410156c-1.015625.003906-2.023438-.1875-2.964844-.566406l-40-16c-4.105468-1.640625-6.105468-6.296875-4.464844-10.398438 1.636719-4.105468 6.292969-6.105468 10.398438-4.464843l40 16c3.566406 1.417969 5.621094 5.171875 4.894531 8.941406-.722656 3.769531-4.023437 6.492187-7.863281 6.488281zm0 0" fill="#8f563b"/><path d="m240.03125 40.410156h-16c-4.417969 0-8 3.582032-8 8 0 4.417969 3.582031 8 8 8h16c4.417969 0 8-3.582031 8-8 0-4.417968-3.582031-8-8-8zm0 0"/><path d="m459.457031 78.921875c-11.28125-6.941406-26.054687-3.449219-33.03125 7.808594l-54.664062 88.457031c-11.277344-6.96875-26.070313-3.476562-33.042969 7.800781-6.96875 11.277344-3.476562 26.070313 7.800781 33.039063l-34.847656 56.382812h-39.640625v-24.796875c34.089844-15.644531 55.957031-49.695312 56-87.203125v-56.109375c8.976562-.566406 15.972656-7.992187 16-16.984375.011719-11.988281-5.980469-23.183594-15.957031-29.824218l-8.839844-5.878907c-6.59375-29.964843-33.183594-51.28125-63.867187-51.203125h-46.671876c-30.679687-.078125-57.269531 21.238282-63.863281 51.203125l-8.800781 5.886719c-9.992188 6.632812-16 17.828125-16 29.824219.03125 8.992187 7.027344 16.417969 16 16.984375v56.101562c.042969 37.507813 21.914062 71.558594 56 87.203125v24.796875h-32.40625l-34.847656-56.382812c10.800781-7.164063 13.960937-21.605469 7.144531-32.628906-6.816406-11.019532-21.152344-14.636719-32.386719-8.171876l-54.703125-88.503906c-4.355469-7.613281-12.515625-12.242187-21.285156-12.078125-8.769531.164063-16.75 5.101563-20.8125 12.871094-4.066406 7.773437-3.566406 17.144531 1.296875 24.441406l8.410156 13.597657 46.277344 74.855468c-7.636719 4.34375-12.289062 12.511719-12.132812 21.292969.15625 8.785156 5.101562 16.78125 12.886718 20.847656 7.789063 4.066407 17.175782 3.550781 24.472656-1.339843l19.269532 31.199218c-48.261719.492188-87.140625 39.734375-87.183594 88v64c0 4.417969 3.582031 8 8 8h416c4.417969 0 8-3.582031 8-8v-64c-.0625-45.539062-34.828125-83.519531-80.183594-87.605468l19.496094-31.546876c3.773438 2.347657 8.125 3.597657 12.570312 3.601563 1.882813 0 3.761719-.222656 5.597657-.65625 9.453125-2.234375 16.625-9.945313 18.171875-19.535156 1.546875-9.585938-2.835938-19.164063-11.105469-24.257813l54.65625-88.453125c6.96875-11.269531 3.488281-26.058593-7.777344-33.035156zm-363.425781 337.488281h-64v-56c.046875-36.648437 27.582031-67.433594 64-71.550781zm272-127.550781c36.421875 4.117187 63.957031 34.902344 64 71.550781v56h-64zm25.234375-118.046875 2.597656 11.015625 11.007813-2.601563-7.902344 12.800782-13.601562-8.414063zm-256.136719-82.402344c-.605468-.003906-1.09375-.492187-1.097656-1.09375-.007812-6.628906 3.292969-12.820312 8.800781-16.503906l11.609375-7.738281c1.84375-1.222657 3.089844-3.160157 3.445313-5.34375.082031-.453125.257812-.863281.347656-1.3125h31.796875c4.417969 0 8-3.582031 8-8s-3.582031-8-8-8h-25.6875c8.898438-14.90625 24.992188-24.027344 42.351562-24h46.671876c24.203124-.074219 44.882812 17.429687 48.800781 41.3125.355469 2.183593 1.605469 4.121093 3.449219 5.34375l11.617187 7.738281c5.507813 3.683594 8.808594 9.875 8.796875 16.503906-.003906.601563-.492188 1.089844-1.09375 1.09375zm14.902344 24c0-2.664062.265625-5.335937.53125-8h7.46875c-.003906 3.269532 1.980469 6.210938 5.007812 7.433594l23.539063 9.40625c-2.761719 1.324219-4.523437 4.101562-4.546875 7.160156v8c0 4.417969 3.582031 8 8 8s8-3.582031 8-8v-8c-.011719-.960937-.207031-1.914062-.566406-2.804687l5.601562 2.238281c.941406.378906 1.949219.570312 2.964844.566406 3.839844.003906 7.140625-2.71875 7.863281-6.488281.726563-3.769531-1.328125-7.523437-4.894531-8.941406l-21.421875-8.570313h84.910156l-21.421875 8.570313c-3.566406 1.417969-5.621094 5.171875-4.898437 8.941406.726562 3.769531 4.027343 6.492187 7.863281 6.488281 1.019531.003906 2.027344-.1875 2.96875-.566406l5.601562-2.238281c-.363281.890625-.554687 1.84375-.570312 2.804687v8c0 4.417969 3.582031 8 8 8s8-3.582031 8-8v-8c-.023438-3.0625-1.796875-5.84375-4.566406-7.160156l23.535156-9.40625c3.039062-1.214844 5.035156-4.160156 5.03125-7.433594h7.59375c.261719 2.65625.429688 5.328125.429688 8v40h-46.132813l-16-8c-11.265625-5.605468-24.511719-5.605468-35.777344 0l-16 8h-46.113281zm.410156 56h47.589844c1.242188.003906 2.464844-.285156 3.578125-.839844l17.6875-8.847656c6.761719-3.367187 14.710937-3.367187 21.472656 0l17.6875 8.890625c1.113281.539063 2.335938.8125 3.574219.796875h47.59375c-4.105469 40.882813-38.511719 72.011719-79.601562 72.011719-41.085938 0-75.496094-31.128906-79.597657-72.011719zm103.589844 84.800782v25.089843l-23.648438 42.566407-24.351562-42.574219v-25.082031c15.722656 4.214843 32.277344 4.214843 48 0zm-60.636719 35.199218 27.910157 48.847656-11.273438 20.28125-38.398438-69.128906zm-117.363281-117.597656 7.90625 12.800781-13.601562 8.414063-7.894532-12.800782 11.007813 2.601563zm-60.398438-67.265625c-2.128906-3.742187-.914062-8.496094 2.746094-10.757813 3.664063-2.261718 8.457032-1.226562 10.855469 2.351563l4.207031 6.800781-13.601562 8.414063zm19.289063 31.199219-6.671875-10.789063 13.597656-8.410156 6.664063 10.792969-11.007813-2.601563zm11.382813 18.402344-7.871094-12.738282 10.328125 2.402344zm5.710937-21.191407 7.898437 12.796875-10.335937-2.398437zm-2.199219 26.855469 11.007813 2.589844 2.59375-11.015625 9.132812 14.824219-11.015625-2.597657-2.597656 11.007813zm23.71875 68.800781c-3.757812 2.316407-8.6875 1.148438-11.007812-2.609375-1.121094-1.800781-1.476563-3.976562-.988282-6.042968.488282-2.066407 1.777344-3.847657 3.589844-4.957032l20.40625-12.625 13.601563-8.40625 6.792969-4.199218c3.742187-2.171876 8.535156-.972657 10.816406 2.710937 2.277344 3.679687 1.210937 8.503906-2.402344 10.886719l-6.792969 4.199218zm22.027344 5.199219 13.605469-8.402344 29.664062 48h-18.824219zm81.765625 183.597656h-67.296875v-128h43.296875l47.550781 85.601563zm40 0h-21.695313l71.121094-128h21.679688zm132.703125 0h-114.398438l71.113282-128h43.285156zm-2.742188-144h-18.816406l29.648438-48 13.597656 8.417969zm57.472657-47.359375c-2.324219 3.753907-7.246094 4.914063-11 2.601563l-6.816407-4.207032-34.015624-21.027343c-2.519532-1.460938-4.046876-4.175781-3.988282-7.085938.0625-2.914062 1.703125-5.5625 4.28125-6.917969 2.578125-1.351562 5.691406-1.199218 8.121094.40625l6.792969 4.199219 13.601562 8.40625 20.4375 12.585938c3.75 2.328125 4.910157 7.253906 2.585938 11.007812zm3.589843-51.457031-2.589843-11.015625-11.007813 2.632813 9.125-14.777344 2.601563 11.019531 11.007812-2.601563zm-.984374-28.796875 7.898437-12.800781 2.398437 10.34375zm13.601562 8.421875-2.398438-10.351562 10.335938-2.398438zm11.382812-18.398438-2.597656-11.015624-11.007812 2.589843 6.671875-10.78125 13.597656 8.40625zm19.289063-31.199218-4.207031 6.796875-13.601563-8.40625 4.199219-6.800781c1.449219-2.546876 4.171875-4.097657 7.097656-4.042969 2.929688.050781 5.59375 1.699219 6.949219 4.292969 1.355469 2.597656 1.183594 5.726562-.445313 8.160156zm0 0"/></svg>